<?xml version="1.0" encoding="UTF-8" standalone="no"?>
<!-- Generator: Adobe Illustrator 19.1.0, SVG Export Plug-In . SVG Version: 6.00 Build 0)  -->

<svg
   xmlns:dc="http://purl.org/dc/elements/1.1/"
   xmlns:cc="http://creativecommons.org/ns#"
   xmlns:rdf="http://www.w3.org/1999/02/22-rdf-syntax-ns#"
   xmlns:svg="http://www.w3.org/2000/svg"
   xmlns="http://www.w3.org/2000/svg"
   xmlns:sodipodi="http://sodipodi.sourceforge.net/DTD/sodipodi-0.dtd"
   xmlns:inkscape="http://www.inkscape.org/namespaces/inkscape"
   version="1.1"
   id="Layer_1"
   x="0px"
   y="0px"
   viewBox="0 0 1500.6 516.3"
   enable-background="new 0 0 977.6 516.3"
   xml:space="preserve"
   sodipodi:docname="sjMinus-logo.svg"
   width="1500.6"
   height="516.29999"
   inkscape:version="0.92.0 r15299"
   inkscape:export-filename="C:\Users\Kim\Pictures\sjMinus-logo.png"
   inkscape:export-xdpi="96"
   inkscape:export-ydpi="96"><metadata
     id="metadata3695"><rdf:RDF><cc:Work
         rdf:about=""><dc:format>image/svg+xml</dc:format><dc:type
           rdf:resource="http://purl.org/dc/dcmitype/StillImage" /><dc:title></dc:title></cc:Work></rdf:RDF></metadata><defs
     id="defs3693" /><sodipodi:namedview
     pagecolor="#ffffff"
     bordercolor="#666666"
     borderopacity="1"
     objecttolerance="10"
     gridtolerance="10"
     guidetolerance="10"
     inkscape:pageopacity="0"
     inkscape:pageshadow="2"
     inkscape:window-width="1920"
     inkscape:window-height="1017"
     id="namedview3691"
     showgrid="false"
     inkscape:zoom="1.1761962"
     inkscape:cx="666.05496"
     inkscape:cy="258.14999"
     inkscape:window-x="-8"
     inkscape:window-y="-8"
     inkscape:window-maximized="1"
     inkscape:current-layer="layer2" /><g
     id="g3688"
     transform="translate(0,2.2070312e-6)"><path
       d="M 125.3,253.1 C 84.6,243.4 52.8,238.6 45.8,266.7 26.3,234.2 33.9,189.1 59.4,173.4 c 42.7,-26.6 78.3,19.2 92.6,-1.6 7.5,-10.4 -18.2,-25.7 -43,-35.4 C 45.7,111.5 34.6,64.4 53.3,33.6 83.2,-15.9 159,4.3 182.6,13.3 c 24.9,9.2 47,5.9 49.7,-13.3 15.1,10.2 33.1,62.7 1.4,87.1 -43.9,33.9 -98.1,-30.4 -112,-7.7 -5.6,9.9 10.4,23.9 38.8,35.1 56.8,21.3 94.1,43.5 77.9,97.7 -13.9,48.3 -72.5,50.6 -113.1,40.9 z m 195.2,1.1 c -43.3,1 -68,-42.8 -65,-82.7 2.8,-45.4 27.2,-95.9 80,-94.5 26.8,0.2 46.7,26 44.4,48.9 -3.3,28.4 -23.9,51.8 -54.1,39.8 13.9,-7.5 11.3,-29 -1.5,-29.3 -12.8,0.3 -15.9,17.7 -15.9,34.1 0,16.4 11.8,37.4 29.5,36.9 17.7,-0.5 37.1,-16.1 43.2,-40.6 4.4,39.9 -17.9,86.3 -60.6,87.4 z m 171,-65.2 c -19.6,-6.9 -28,-24.6 -24.5,-54.8 -0.6,0 -4.9,0.9 -5.3,5.7 -1.4,10.2 -2.6,18.7 -6.2,51.3 -3,32 10.1,36 25.6,31.7 -4.1,14.3 -28.9,36.8 -58.5,25.5 -34.9,-13.5 -25.4,-59.7 -20.8,-105 3.4,-45.4 1.5,-52.8 -13.5,-55.8 19.9,-13.7 57.8,-24.9 71.5,4.1 8.5,-8.5 24.5,-18.3 43,-13.2 29.2,7.7 21.3,41.1 17.7,64.6 -3.5,22.9 7.7,27.3 17,25 -7.5,18.3 -25.9,28.5 -46,20.9 z m 148.9,59.8 c -32,13.4 -75.2,-3.8 -87.6,-57 -13.2,-53.3 20.6,-106.8 62,-114.7 12.3,-2.1 49.5,-2.4 50.9,43.3 0.5,42 -27,60.1 -52.1,63.1 4.6,11.9 12.5,19.8 25.9,20.2 14.6,-0.1 27,-10.8 33.9,-30.3 2.6,21.4 -3.5,63 -33,75.4 z M 610,165.6 c 22.6,-9.3 25.9,-29.7 13.7,-29.4 -9,-0.7 -14.5,15.9 -13.7,29.4 z m 166.7,83 c -32,13.4 -75.2,-3.8 -87.6,-57 -13.1,-53.4 20.7,-106.8 62,-114.7 12.3,-2.1 49.5,-2.4 50.9,43.3 0.5,42 -27,60.1 -52.1,63.1 4.6,11.9 12.5,19.8 25.9,20.2 14.6,-0.1 26.4,-10.8 33.9,-30.3 2,21.4 -3.5,63 -33,75.4 z m -30.3,-83.2 c 22.6,-9.3 25.9,-29.7 13.7,-29.4 -9.1,-0.7 -14.6,15.9 -13.7,29.4 z m 181.9,81.7 c -42,-8.6 -33.6,-55.4 -29.5,-78.3 5.9,-30 9.3,-35.2 2.9,-39.3 -5.3,-2.8 -11.6,1 -14,16 -0.2,2.4 -1,5.4 -1.9,9 -4.9,24.6 -12,71.5 12.6,84.3 -8.5,8.5 -45.4,21.6 -59.9,4.1 -15.1,-17.6 -8.3,-60.3 -4.6,-86.1 6,-31.8 4.8,-64.1 -15.5,-69.3 44,-27.8 68.9,-10.1 70.3,11.9 7.5,-11 30.5,-25.7 48.9,-19.5 23.2,7.8 18.3,31.8 11.8,54.4 -6,23.3 -9,38.9 0.5,42.6 7.6,3.6 16.8,-5.4 16.4,-23.7 24.4,40.7 4.5,103.1 -38,93.9 z"
       id="path3680"
       inkscape:connector-curvature="0"
       style="fill:#f46430" /><g
       id="g3686"><path
         d="m 281.7,473.4 c -0.2,11.5 -2,18.7 -5.3,22.7 -3.3,4 -9.6,6 -19.9,5.8 -94.3,0.3 -94.3,0.3 -94.3,0.3 -10.3,-0.2 -16.9,-1.9 -20.3,-5.8 -3.4,-3.9 -4.6,-11.3 -5,-22.9 -0.2,-194.1 -0.2,-194.1 -0.2,-194.1 60.2,0.2 60.2,0.2 60.2,0.2 0.4,158.8 0.4,158.8 0.4,158.8 -0.6,7.9 -0.6,7.9 -0.6,7.9 1.4,5.6 5.4,8.9 12.7,8.9 2.5,-0.4 4.9,-0.9 7.5,-2.5 1.9,-1.1 3.3,-3.4 3.5,-6.4 0.8,-3 1.1,-6 0.7,-9.1 0.1,-157.6 0.1,-157.6 0.1,-157.6 59.7,-0.4 59.7,-0.4 59.7,-0.4 z m 77.1,-193.8 c 2,5.6 3.5,10 3.9,13.1 1,3.1 1.2,8.6 1.3,15.9 1.7,-6 3.2,-10.1 5.2,-13 1.4,-2.9 3.5,-5.8 6.1,-8.7 5.2,-5.1 12.1,-7.6 20,-7.6 24.9,0 24.9,0 24.9,0 10.9,0.2 18.1,2.6 20.7,7.6 3.2,5.7 5.3,10.1 5.7,13.2 0.9,3.7 1.1,9.2 1.2,17.1 0.3,184.4 0.3,184.4 0.3,184.4 -60.2,-0.2 -60.2,-0.2 -60.2,-0.2 C 387.7,348 387.7,348 387.7,348 c -0.4,-11 -4.3,-16.1 -12.2,-16.1 -7.9,0 -11.9,5.2 -11.6,16.8 0.2,152.7 0.2,152.7 0.2,152.7 -60.3,0.4 -60.3,0.4 -60.3,0.4 -0.4,-182.6 -0.4,-182.6 -0.4,-182.6 -0.1,-7.3 -0.2,-13.4 -1.1,-18.3 -0.9,-4.3 -2.8,-11.8 -5.7,-21.7 z m 111.3,-0.3 c 59.7,-0.4 59.7,-0.4 59.7,-0.4 0.3,86.4 0.3,86.4 0.3,86.4 3.6,0.3 3.6,0.3 3.6,0.3 6.1,-0.2 11.1,-1.6 14.4,-5.6 3.9,-3.4 5.5,-8.7 5.4,-14.8 -0.2,-37.7 -0.2,-37.7 -0.2,-37.7 0.2,-11.5 0.2,-11.5 0.2,-11.5 0.2,-2.4 0.4,-4.8 0.5,-6.7 0.8,-2.4 1.6,-5.4 3.2,-10.1 63.3,-0.2 63.3,-0.2 63.3,-0.2 -2.9,6.5 -4.5,11.8 -5.4,15.4 -0.8,3 -1.2,7.8 -1,13.3 -0.3,45 -0.3,45 -0.3,45 0.4,11.6 -2.7,19.9 -8.4,23.1 -5.2,3.9 -13.9,7.5 -25.8,12.1 10.8,2 19.1,5.1 26.7,9.3 7.6,3.6 11.2,13.6 11.1,30.6 0.3,45.1 0.3,45.1 0.3,45.1 0,8.5 0.2,14 0.6,16.5 0.4,3.1 1.9,6.8 4,11.9 -60.3,0.4 -60.3,0.4 -60.3,0.4 -2.2,-3.8 -3.7,-7 -4.2,-9.4 -0.4,-3.1 -0.7,-7.4 -0.8,-14.1 -0.5,-42.6 -0.5,-42.6 -0.5,-42.6 0.2,-10.9 -5.4,-16.8 -17,-16.5 -1.2,-0.1 -1.2,-0.1 -1.2,-0.1 -8.5,0 -8.5,0 -8.5,0 0.5,82.8 0.5,82.8 0.5,82.8 -60.2,-0.2 -60.2,-0.2 -60.2,-0.2 z m 168.6,-0.2 c 60.3,-0.4 60.3,-0.4 60.3,-0.4 0.5,222.7 0.5,222.7 0.5,222.7 -60.2,-0.2 -60.2,-0.2 -60.2,-0.2 z M 761,501.1 C 734.8,501 721.4,486 721.2,455.5 721,326 721,326 721,326 c -0.1,-15.2 2.5,-26 7.3,-32.9 4.7,-6.3 8.7,-10.9 12.5,-12.5 4.3,-0.9 10.5,-1.7 19,-2.2 80.9,-0.1 80.9,-0.1 80.9,-0.1 0,49.3 0,49.3 0,49.3 -59.6,-0.2 -59.6,-0.2 -59.6,-0.2 0.2,38.3 0.2,38.3 0.2,38.3 59.1,-0.5 59.1,-0.5 59.1,-0.5 0.5,50.5 0.5,50.5 0.5,50.5 -59.6,-0.2 -59.6,-0.2 -59.6,-0.2 -0.2,35.3 -0.2,35.3 -0.2,35.3 59.6,0.2 59.6,0.2 59.6,0.2 -0.1,49.9 -0.1,49.9 -0.1,49.9 z m 99.3,-51 c 56.6,-0.1 56.6,-0.1 56.6,-0.1 0.1,-34 0.1,-34 0.1,-34 -27.4,0.4 -27.4,0.4 -27.4,0.4 -10.3,-0.2 -18,-3.8 -22.4,-10.2 -5,-7.1 -7.2,-17.6 -7.3,-32.8 0,-48.7 0,-48.7 0,-48.7 0.4,-13.4 1,-21.8 2.6,-26.6 1.6,-4.8 4.3,-8.8 8.9,-12.7 4.5,-3.3 8.3,-5.5 12,-5.8 3.7,-0.9 9.8,-1.1 18.3,-1.1 75.5,-0.5 75.5,-0.5 75.5,-0.5 0,49.3 0,49.3 0,49.3 -57.2,0 -57.2,0 -57.2,0 0,32.3 0,32.3 0,32.3 30.4,-0.2 30.4,-0.2 30.4,-0.2 9.1,0.1 16.2,2.4 20.8,7 3.9,4.6 6.4,12 6.2,22.4 0,73.6 0,73.6 0,73.6 0.5,9.2 0.1,15.2 -0.8,18.8 -0.8,3 -2.9,6.5 -6.2,9.9 -3.3,4 -6.5,6.2 -10.3,7.8 -3.7,0.9 -8.7,1.8 -15.4,1.9 -84.6,-0.2 -84.6,-0.2 -84.6,-0.2 z"
         id="path3682"
         inkscape:connector-curvature="0"
         style="fill:#6fc3de" /><path
         d="m 52.2,281.9 1.6,160.2 c 0.1,17.4 -13.9,20.2 -30.6,16.7 L 0,512.1 c 10.7,2.7 23.5,4.3 39,4.2 42.3,-0.3 76.5,-13.8 76.3,-55.2 -0.1,-21.6 -1.7,-179.9 -1.7,-179.9 z"
         id="path3684"
         inkscape:connector-curvature="0"
         style="fill:#6fc3de" /></g></g><path
     inkscape:connector-curvature="0"
     style="fill:#f5d04e;stroke-width:0.51464897"
     d="m 1470.6458,159.44527 c 5.0386,0 9.3347,4.04501 9.3347,8.78916 v 197.45653 c 0,4.74415 -4.2961,8.78916 -9.3347,8.78916 h -451.9371 c -5.0386,0 -9.3347,-4.04501 -9.3347,-8.78916 V 168.23443 c 0,-4.74415 4.2961,-8.78916 9.3347,-8.78916 h 451.9371 m 0,-17.57833 h -451.9371 c -15.3811,0 -28.00411,11.88535 -28.00411,26.36749 v 197.45653 c 0,14.53208 12.62301,26.36749 28.00411,26.36749 h 451.9371 c 15.434,0 28.004,-11.88534 28.004,-26.36749 V 168.23443 c 0.053,-14.48214 -12.57,-26.36749 -28.004,-26.36749 z"
     id="path14" /><path
     style="fill:#151b1f;fill-opacity:1;stroke-width:0.30411628"
     d="m 1016.1818,374.03472 c -2.5243,-0.56676 -5.4371,-3.2181 -6.2029,-5.64595 -0.4416,-1.40029 -0.4911,-11.65524 -0.4911,-101.84598 V 166.25388 l 0.783,-1.45477 c 1.1277,-2.09532 2.3854,-3.31993 4.4995,-4.38087 l 1.857,-0.93194 h 228.0524 228.0523 l 1.5673,0.74782 c 1.9971,0.95287 3.8141,2.66362 4.8261,4.54402 l 0.7942,1.47574 v 100.64738 100.64737 l -0.7945,1.47627 c -1.1083,2.05933 -2.7275,3.65094 -4.6153,4.5367 l -1.6083,0.75462 -227.8675,-0.0302 c -125.3272,-0.0166 -228.3107,-0.12969 -228.8522,-0.25129 z m 332.0264,-123.87381 c -0.6465,-0.0637 -1.7043,-0.0637 -2.3506,0 -0.6465,0.0637 -0.1176,0.11575 1.1752,0.11575 1.2929,0 1.8217,-0.0521 1.1754,-0.11575 z m 5.2709,-14.2241 c 3.1561,-0.19182 4.3893,-0.39001 5.376,-0.86395 1.539,-0.73925 3.1171,-2.46279 3.551,-3.87822 0.4103,-1.33838 1.0143,-18.52943 0.866,-24.64914 -0.1098,-4.53107 -0.1508,-4.78836 -0.9755,-6.11324 -1.759,-2.82613 -3.1473,-3.29454 -10.7193,-3.61645 -2.4132,-0.1026 -4.6346,-0.25309 -4.9362,-0.33441 -0.4909,-0.13233 -0.5485,-0.61076 -0.5485,-4.55442 v -4.40656 h 8.6188 8.6189 v -6.78721 -6.78721 l -10.2643,0.0104 c -5.6453,0.006 -12.146,0.13262 -14.4459,0.28198 -3.7452,0.24324 -4.3493,0.36083 -5.7897,1.12703 -0.9718,0.51694 -2.0032,1.39515 -2.6064,2.21927 -1.3377,1.82766 -1.4416,3.2692 -1.3143,18.22056 l 0.1019,11.97353 0.7835,1.09627 c 1.7623,2.46562 4.0115,3.21129 10.8128,3.58473 1.8961,0.10411 3.6943,0.2544 3.996,0.33398 0.492,0.1298 0.5485,0.6134 0.5485,4.6988 v 4.5541 h -8.4621 -8.4622 v 7.0823 7.0823 l 10.5777,-0.0128 c 5.8177,-0.007 12.4207,-0.12479 14.6733,-0.26169 z m -45.6099,-1.34856 c 0.3877,-0.32461 0.9927,-1.18777 1.3444,-1.91813 0.5903,-1.22602 0.6571,-2.15454 0.8696,-12.09894 0.1266,-5.92405 0.2415,-18.97098 0.2553,-28.99319 l 0.025,-18.22218 h -8.9322 -8.9322 l -0.03,16.89425 c -0.017,9.29184 -0.1225,19.90587 -0.235,23.58674 -0.1888,6.17236 -0.2559,6.75718 -0.8634,7.52495 -0.5634,0.71193 -0.9101,0.84513 -2.3945,0.91999 -1.4697,0.0741 -1.8731,-0.0237 -2.6316,-0.63803 -0.8298,-0.67203 -0.9111,-0.92887 -1.102,-3.48114 -0.1133,-1.51556 -0.2193,-12.21709 -0.2355,-23.78116 l -0.029,-21.0256 h -8.9323 -8.9322 l 0.017,14.82858 c 0.01,8.15572 0.1329,21.28838 0.2749,29.18369 0.2521,14.01128 0.2748,14.38277 0.9472,15.50924 0.8925,1.49537 1.6673,1.94369 3.7757,2.18502 0.9481,0.10851 9.2192,0.17902 18.3804,0.15669 16.1807,-0.0394 16.6767,-0.0575 17.3615,-0.63078 z m -67.2969,-0.73774 h 1.2569 l -0.2144,-28.37408 -0.2144,-28.37409 -1.1149,-1.7281 c -1.6615,-2.57518 -2.7364,-3.22252 -5.8494,-3.52245 -2.7676,-0.26667 -10.0943,0.0997 -12.0845,0.60432 -1.6706,0.42355 -3.6169,2.1002 -4.8717,4.19669 l -1.0709,1.78918 -0.3669,-2.17421 c -0.6085,-3.60655 -0.9785,-4.46264 -2.0528,-4.75092 -0.9393,-0.25205 -13.3694,-0.0489 -15.5922,0.25477 -1.4207,0.19411 -1.4779,0.60608 -0.5485,3.94496 0.5914,2.12466 0.6163,3.33198 0.6214,30.17357 l 0.01,27.96036 h 9.0619 9.0619 l 0.1241,-22.20598 c 0.1385,-24.77127 0.079,-24.08702 2.1811,-25.14793 1.0969,-0.55365 1.2037,-0.5577 2.2555,-0.0854 2.1142,0.94923 2.1788,1.20982 2.428,9.78168 0.1233,4.23798 0.2353,14.4413 0.249,22.67405 l 0.025,14.96862 4.9363,0.10859 c 2.7149,0.0597 6.1919,0.0631 7.7267,0.007 1.5348,-0.0556 3.3561,-0.10109 4.0475,-0.10109 z m -174.2977,-23.05861 0.143,-23.05861 1.2971,-1.13927 c 1.7296,-1.51908 2.7937,-1.52687 4.4611,-0.0327 l 1.2349,1.10661 0.2133,23.1353 0.2133,23.13531 4.7011,-0.19159 c 2.5855,-0.10537 6.5825,-0.19158 8.8822,-0.19158 h 4.1812 l 0.027,-20.58295 c 0.015,-11.32062 0.1224,-21.75717 0.2387,-23.19233 0.1995,-2.46195 0.269,-2.65786 1.2313,-3.46738 1.3792,-1.16035 2.8357,-1.15934 4.2175,0.003 l 1.0235,0.86092 0.099,23.18941 0.099,23.18939 h 9.1131 9.1131 l -0.2223,-22.50107 c -0.2556,-25.86268 -0.5454,-34.47159 -1.2108,-35.97117 -0.5589,-1.25939 -2.0636,-2.48209 -3.6021,-2.92705 -1.6768,-0.48494 -12.1304,-0.71765 -13.746,-0.30601 -1.7285,0.44041 -2.9104,1.6445 -4.3793,4.46156 -1.1648,2.23385 -1.6883,2.83675 -1.6883,1.94432 0,-1.13537 -1.3823,-4.38371 -2.3989,-5.63724 l -1.1496,-1.41765 -7.5783,0.1685 c -8.4426,0.18771 -9.1903,0.33415 -10.6945,2.09445 -0.4956,0.57995 -1.6193,2.24886 -2.4971,3.70869 l -1.5959,2.65423 -0.5224,-3.01425 c -0.2874,-1.65784 -0.6636,-3.49458 -0.8362,-4.08164 l -0.3139,-1.06739 -5.4509,-0.21247 c -6.1209,-0.23857 -11.7552,0.0243 -11.973,0.55854 -0.077,0.18976 0.1447,1.4666 0.4934,2.83744 0.6047,2.37769 0.6436,3.78602 0.845,30.59341 l 0.2112,28.10098 5.198,0.0883 c 2.859,0.0486 6.8364,0.11809 8.8388,0.15446 l 3.6408,0.0661 z m 97.7255,-8.22157 v -31.28019 h -8.9323 -8.9322 v 31.28019 31.28018 h 8.9322 8.9323 z"
     id="path3905"
     inkscape:connector-curvature="0" /><path
     style="fill:#151b1f;fill-opacity:1;stroke:#151b1f;stroke-width:0.85019827;stroke-opacity:1"
     d="m 1104.6349,373.6495 -89.7531,-0.22033 -2.2346,-2.33419 -2.2347,-2.33418 -0.6045,-100.3234 c -0.5564,-92.31893 -0.4926,-100.53975 0.7991,-103.03494 0.772,-1.49134 2.2561,-3.30864 3.2981,-4.03844 1.7053,-1.19444 24.7584,-1.32691 230.9187,-1.32691 h 229.0243 l 2.8906,2.89068 2.8907,2.89067 v 100.86343 c 0,111.2681 0.3789,103.49606 -5.1852,106.37335 -2.4411,1.26236 -59.9884,1.35483 -369.8094,0.59426 z m 243.4264,-123.20424 c -0.5845,-0.23585 -1.541,-0.23585 -2.1255,0 -0.5845,0.23586 -0.1063,0.42883 1.0628,0.42883 1.169,0 1.6472,-0.19297 1.0627,-0.42883 z m 9.3602,-14.78742 c 5.2568,-1.45986 5.6585,-2.79764 5.922,-19.72213 0.2255,-14.49041 0.1669,-15.09902 -1.6285,-16.89923 -1.3795,-1.3832 -3.1432,-1.95328 -6.8016,-2.19839 -8.6826,-0.58173 -8.765,-0.62811 -8.765,-4.93474 v -3.80969 h 8.9271 8.927 v -7.30927 -7.30927 l -15.2851,0.29513 -15.2851,0.29514 -2.3565,2.35509 -2.3565,2.3551 -0.2691,13.96141 c -0.1805,9.3644 0.052,14.5614 0.7061,15.7836 1.3305,2.48613 5.8691,4.22882 11.0134,4.22882 h 4.2783 v 4.2202 4.22021 l -8.2895,0.24333 -8.2894,0.24334 -0.2456,7.43924 -0.2457,7.43923 13.4237,-0.005 c 7.3831,-0.003 14.8621,-0.40418 16.62,-0.89238 z m -49.8719,-0.60374 c 2.6416,-1.76385 2.8904,-4.633 2.8904,-33.33014 v -28.9914 l -9.1396,0.24131 -9.1396,0.24132 -0.2259,23.49992 c -0.2408,25.05834 -0.4473,26.23185 -4.3963,24.9785 -1.6762,-0.532 -1.7348,-1.26739 -1.9537,-24.51344 l -0.2257,-23.96498 -9.1396,-0.24132 -9.1397,-0.24131 v 28.88016 c 0,16.03669 0.3567,29.81816 0.8019,30.98936 0.4411,1.16007 1.4932,2.28836 2.3381,2.50732 2.5642,0.66455 36.3266,0.61453 37.3297,-0.0553 z m -241.1165,-23.95688 c 0,-22.6173 0.024,-22.92367 1.865,-24.21345 1.6857,-1.18069 2.0127,-1.17266 3.4008,0.0836 1.4083,1.27446 1.5358,3.28507 1.5358,24.21345 v 22.82359 h 9.3522 9.3522 l 0.012,-21.89261 c 0.01,-12.04093 0.2354,-22.72697 0.5089,-23.74674 0.6087,-2.26977 2.6895,-3.18847 4.2633,-1.88232 0.9379,0.77838 1.1676,5.54725 1.1676,24.24532 v 23.27635 h 9.7257 9.7257 l -0.4115,-26.1436 c -0.2263,-14.37898 -0.6025,-27.72554 -0.836,-29.65903 -0.6304,-5.21945 -2.5359,-6.47273 -10.5465,-6.93646 -7.4793,-0.43297 -10.2984,0.62746 -12.0835,4.54523 -0.9451,2.0743 -0.9522,2.0705 -2.4703,-1.32027 l -1.5225,-3.40055 h -8.4289 c -7.1777,0 -8.7539,0.2557 -10.6188,1.72258 -1.2044,0.94741 -2.4296,2.47777 -2.7225,3.40079 -0.8474,2.66998 -1.8562,1.95925 -2.4449,-1.72257 l -0.5439,-3.4008 h -9.0326 -9.0326 l 0.5407,3.94456 c 0.2974,2.1695 0.5407,16.32531 0.5407,31.45733 v 27.51279 h 9.3522 9.3521 z m 97.7728,-8.55019 v -31.45734 h -9.3521 -9.3522 v 31.45734 31.45734 h 9.3522 9.3521 z m 52.7123,13.30279 c 0,-21.60971 0.5526,-28.31021 2.3927,-29.01636 3.1513,-1.20926 3.5284,1.03178 4.1138,24.45205 l 0.5679,22.71886 h 9.3205 9.3205 l -0.5897,-28.6942 c -0.5211,-25.35392 -0.7627,-28.93629 -2.0753,-30.77392 -2.0188,-2.82639 -5.3341,-3.61066 -12.6141,-2.98402 -4.9698,0.42779 -6.5119,0.91827 -8.0769,2.56901 -2.5041,2.64133 -2.8934,2.58795 -3.5071,-0.48095 l -0.5102,-2.5506 -8.3106,0.013 c -4.5709,0.007 -8.7681,0.30376 -9.327,0.65912 -0.7326,0.46575 -0.7976,1.58945 -0.2329,4.02543 0.4309,1.85862 0.7926,15.71782 0.8038,30.79821 l 0.02,27.4189 h 9.3522 9.3521 z"
     id="path5391"
     inkscape:connector-curvature="0" /><path
     style="fill:#151b1f;fill-opacity:1;stroke:#151b1f;stroke-width:0.85019827;stroke-opacity:1"
     d="m 1048.579,206.49158 c 0,-14.66442 -0.2433,-28.43763 -0.5407,-30.60713 l -0.5407,-3.94456 h 8.1803 8.1802 l 0.9633,3.82589 c 1.0316,4.09676 2.0244,4.84356 2.8752,2.16284 0.2903,-0.91468 1.7008,-2.65008 3.1345,-3.85645 2.4448,-2.05712 3.0888,-2.17829 10.3651,-1.95029 l 7.7583,0.24311 1.5767,3.35328 1.5767,3.35329 1.5971,-2.07799 c 0.8784,-1.14289 1.6056,-2.31851 1.616,-2.61249 0.01,-0.29397 1.1787,-1.01492 2.5963,-1.60209 3.5159,-1.45636 13.1358,-0.65114 15.2674,1.27794 2.1129,1.91213 2.3884,5.09394 3.0011,34.65404 l 0.5066,24.4432 h -8.9624 -8.9624 l -0.226,-23.49598 c -0.2229,-23.17498 -0.251,-23.50522 -2.0559,-24.17254 -1.1702,-0.43264 -2.3963,-0.26282 -3.4008,0.47103 -1.4495,1.05889 -1.5904,2.92754 -1.8225,24.17254 l -0.2516,23.02495 h -8.4629 -8.463 v -22.90715 c 0,-22.36284 -0.043,-22.93709 -1.7992,-24.16738 -2.2431,-1.57112 -5.4731,-0.35597 -6.194,2.33021 -0.267,0.99512 -0.4908,11.46968 -0.4972,23.27681 l -0.012,21.46751 h -8.5019 -8.502 z"
     id="path5393"
     inkscape:connector-curvature="0" /><path
     style="fill:#151b1f;fill-opacity:1;stroke:#151b1f;stroke-width:0.85019827;stroke-opacity:1"
     d="m 1038.938,373.46438 c -24.7038,-0.44072 -25.4086,-0.50082 -26.8564,-2.29007 -2.1896,-2.70608 -2.6069,-22.03713 -2.6095,-120.88865 v -84.4672 l 2.8907,-2.89067 2.8907,-2.89068 h 229.3855 229.3856 l 2.8036,2.71738 2.8036,2.71738 v 101.4185 101.4185 l -2.4808,2.77655 -2.4809,2.77657 -205.1801,0.0275 c -112.849,0.0151 -216.5964,-0.17617 -230.5497,-0.4251 z m 320.6575,-139.21355 c 3.0038,-2.24016 3.3372,-4.17075 3.4563,-20.01357 0.1294,-17.23634 0.8384,-16.37751 -14.7779,-17.90085 -1.3946,-0.13603 -1.7468,-0.88683 -1.9583,-4.17407 l -0.2579,-4.00819 8.7599,-0.2428 8.7598,-0.24279 0.249,-7.13847 0.2489,-7.13847 -15.0047,0.45052 c -19.8323,0.59548 -19.2236,0.18262 -20.2665,13.74739 -0.4537,5.90185 -0.4537,12.23936 0,15.56394 0.9551,6.99777 2.8144,8.66877 10.4125,9.35774 l 5.2314,0.47436 v 4.55801 4.55801 h -8.0122 -8.0121 l -0.2773,6.87629 c -0.1525,3.78195 -0.086,7.07802 0.1478,7.32458 0.2338,0.24656 6.8589,0.26865 14.7225,0.0491 12.5986,-0.35178 14.5684,-0.60138 16.5788,-2.10071 z m -51.5611,-0.0514 c 1.7779,-1.77782 2.2802,-9.42807 2.3436,-35.69086 l 0.062,-25.7185 h -4.9825 c -2.7404,0 -6.7153,0.2375 -8.8331,0.52778 l -3.8506,0.52778 -0.6208,23.1797 c -0.3415,12.74884 -0.9053,23.6399 -1.2529,24.20236 -0.3476,0.56246 -1.5452,0.89353 -2.6614,0.73572 -1.976,-0.2794 -2.043,-0.55508 -2.5517,-10.48932 -0.2873,-5.61131 -0.5742,-16.36745 -0.6376,-23.90254 l -0.1153,-13.70016 -3.9446,-0.54066 c -2.1695,-0.29736 -6.227,-0.54066 -9.0166,-0.54066 h -5.0721 l 0.3021,29.62649 c 0.2346,23.00385 0.5542,29.93012 1.4296,30.98477 1.5402,1.85559 4.8839,2.14192 22.8858,1.95985 10.6085,-0.1073 15.8289,-0.4745 16.5161,-1.16175 z m -241.7985,-22.08769 -0.1973,-21.89261 -0.2424,21.43793 -0.2423,21.43792 -8.7,0.27538 -8.7,0.27538 9.1396,0.1793 9.1396,0.17931 z m 25.5106,5.52629 -0.1927,-16.36632 -0.2512,15.94122 -0.2512,15.94122 h -8.4689 -8.4689 l -0.2419,-21.89261 -0.2419,-21.8926 -0.1975,22.3177 -0.1976,22.31771 h 9.3522 9.3522 z m 16.1338,15.73189 -9.1396,-0.2733 -0.178,-9.11087 -0.1779,-9.11087 -0.2798,8.44147 c -0.1539,4.64281 -0.086,8.94694 0.1513,9.56473 0.3265,0.85083 2.6542,1.07947 9.5973,0.9427 l 9.1663,-0.18057 z m 56.3256,-30.82291 v -31.45734 h -9.3521 -9.3522 v 31.45734 31.45734 h 9.3522 9.3521 z m 52.7217,11.26513 c 0.01,-11.10572 0.2519,-21.66021 0.5483,-23.45443 0.6118,-3.70285 2.3367,-4.83522 4.3297,-2.84229 1.1501,1.15009 1.4141,4.76299 1.748,23.92181 l 0.3933,22.56712 h 9.3565 9.3565 l -0.5415,-14.24083 c -0.2978,-7.83245 -0.6078,-20.6978 -0.6887,-28.58967 -0.1432,-13.95315 -0.2058,-14.41835 -2.2676,-16.8687 -2.1102,-2.50782 -2.1581,-2.51845 -10.0386,-2.23001 -7.3002,0.2672 -8.0994,0.47096 -10.2372,2.61002 l -2.3188,2.3202 -0.8914,-2.7453 -0.8914,-2.74529 h -8.2168 c -4.5192,0 -8.3433,0.1913 -8.4979,0.4251 -0.1547,0.23381 -0.1596,14.29396 -0.011,31.24479 l 0.2702,30.81969 h 9.2945 9.2945 l 0.01,-20.19221 z M 1048.3647,192.1321 c -0.1422,-7.13104 -0.2585,-1.29655 -0.2585,12.96552 0,14.26208 0.1163,20.09657 0.2585,12.96553 0.1422,-7.13104 0.1422,-18.80001 0,-25.93105 z m 67.9935,23.78659 c -0.1878,-1.5093 -0.3384,-0.0661 -0.3346,3.20721 0,3.27326 0.1575,4.50814 0.3415,2.74418 0.1841,-1.76397 0.181,-4.44209 -0.01,-5.95139 z m -0.1605,-31.90636 c -0.9601,-0.96008 -1.04,0.58186 -0.5422,10.45782 l 0.5142,10.20238 0.2405,-10.10357 c 0.1323,-5.55696 0.037,-10.30744 -0.2125,-10.55663 z m -47.9557,2.59348 c 1.0575,-1.34846 1.0274,-1.37853 -0.321,-0.321 -0.8183,0.64177 -1.4879,1.3113 -1.4879,1.48785 0,0.69974 0.6982,0.24937 1.8089,-1.16685 z m 28.3732,-1.06275 c -0.289,-0.46761 -0.9811,-0.84434 -1.5381,-0.83718 -0.6084,0.008 -0.5035,0.34198 0.2628,0.83718 1.6333,1.05555 1.9276,1.05555 1.2753,0 z m 19.1294,-7.22668 c 0,-3.64498 -2.4908,-6.39354 -5.7388,-6.33268 -2.2085,0.0414 -2.1614,0.11709 0.8502,1.36623 1.7535,0.72733 3.2361,1.66409 3.2945,2.08169 0.058,0.41759 0.2019,1.14185 0.3188,1.60946 0.1169,0.46761 0.2604,1.61538 0.3189,2.5506 0.1812,2.90046 0.9564,1.86687 0.9564,-1.2753 z m -47.6111,-0.29309 c 0,-0.33981 -0.744,-0.61784 -1.6533,-0.61784 -1.2433,0 -1.4302,0.26874 -0.7538,1.08375 0.8788,1.05899 2.4071,0.76318 2.4071,-0.46591 z m 25.1621,-0.26337 c 0.3516,-0.569 0.2355,-0.75222 -0.2763,-0.43591 -0.4856,0.30011 -1.3614,-0.60952 -1.9462,-2.02139 -1.3805,-3.33284 -1.9732,-2.74384 -0.7551,0.7504 0.9793,2.80914 1.9518,3.36663 2.9776,1.7069 z m -45.2177,-3.69453 -0.5335,-2.1255 h 8.0982 c 4.454,0 8.2577,0.28694 8.4525,0.63765 0.1948,0.35071 0.2914,0.25506 0.2146,-0.21255 -0.1803,-1.09805 -15.7438,-1.60232 -16.8017,-0.54439 -0.4391,0.43908 -0.5433,1.60201 -0.2315,2.5843 0.7965,2.50946 1.4473,2.23376 0.8014,-0.33951 z m 23.1058,0 c 1.0834,-1.16903 1.7012,-2.11964 1.3728,-2.11248 -0.8455,0.0184 -2.108,1.02074 -3.4643,2.75013 -1.7814,2.27139 -0.1411,1.7713 2.0915,-0.63765 z m 27.2431,-1.87257 c -0.6538,-0.65375 -3.1916,0.90466 -4.0328,2.4764 -0.8204,1.53298 -0.6713,1.51104 1.7136,-0.25218 1.4367,-1.06219 2.4803,-2.06309 2.3192,-2.22422 z m -10.7387,-0.25293 c 1.4179,-0.45409 -0.4927,-0.70892 -5.7388,-0.76545 -4.7326,-0.051 -7.8644,0.25382 -7.8644,0.76545 0,1.00283 10.4719,1.00283 13.6032,0 z m 18.7044,0 c -1.673,-1.08114 -5.7084,-1.08114 -6.3765,0 -0.3229,0.52238 1.051,0.84518 3.5631,0.83718 2.9533,-0.009 3.7345,-0.24188 2.8134,-0.83718 z"
     id="path5395"
     inkscape:connector-curvature="0" /><path
     style="fill:#151b1f;fill-opacity:1;stroke:#151b1f;stroke-width:0.85019827;stroke-opacity:1"
     d="m 1026.138,373.47157 -12.6636,-0.45978 -1.7897,-2.39994 -1.7898,-2.39993 -0.2572,-101.23765 -0.2573,-101.23765 2.7621,-2.84975 2.7621,-2.84976 h 229.7219 229.722 l 2.6405,2.46661 2.6405,2.4666 v 102.04239 102.04238 l -2.616,2.616 -2.616,2.61599 -217.7979,-0.17786 c -119.7889,-0.0978 -223.4966,-0.38476 -230.4616,-0.63765 z M 1359.0691,234.3427 c 3.0951,-1.60055 3.6418,-4.66961 3.6508,-20.49752 0.01,-15.57535 0.083,-15.44554 -9.5297,-16.76969 l -6.6167,-0.91149 -0.2563,-3.96394 -0.2562,-3.96393 8.4556,-0.59947 8.4555,-0.59947 0.386,-6.0608 c 0.2123,-3.33344 0.1022,-6.38356 -0.2446,-6.77804 -0.3467,-0.39449 -7.0241,-0.43723 -14.8385,-0.095 -19.4778,0.85306 -18.6143,0.0413 -18.9794,17.84154 -0.3712,18.10447 0.1466,19.12558 10.3464,20.39996 l 4.806,0.60046 v 4.57813 4.57813 h -8.0769 -8.0769 v 7.34035 7.34034 l 14.2342,-0.6234 c 9.4486,-0.41382 15.0096,-1.02442 16.5407,-1.81618 z m -50.4797,-2.30707 c 1.4651,-3.05858 2.619,-57.82015 1.2362,-58.67471 -0.4799,-0.29661 -4.5552,-0.29739 -9.0561,-0.002 l -8.1836,0.53753 -0.1082,14.53769 c -0.059,7.99573 -0.3464,18.74617 -0.6376,23.88987 l -0.5295,9.35218 h -2.5506 c -2.5172,0 -2.5577,-0.0724 -3.0889,-5.52629 -0.296,-3.03946 -0.583,-13.7899 -0.6376,-23.88987 l -0.099,-18.36358 -8.1836,-0.53756 c -4.501,-0.29566 -8.5181,-0.33079 -8.9271,-0.0781 -0.8797,0.54368 -0.9633,20.71321 -0.1789,43.15797 0.4254,12.17075 0.8517,16.30945 1.7751,17.23289 0.9936,0.9936 4.5727,1.17354 19.6192,0.98639 l 18.4039,-0.22891 z m -144.5855,-29.27605 -0.2231,-31.24479 h -8.927 -8.9271 l -0.2237,30.17759 c -0.123,16.59767 -0.039,30.65782 0.1859,31.24479 0.2927,0.76276 2.9667,1.0672 9.3738,1.0672 h 8.9642 z m 52.9143,8.28943 c 0.2338,-12.39164 0.7347,-23.00849 1.113,-23.593 1.0062,-1.55477 3.705,-1.29695 4.4498,0.4251 0.3539,0.81831 0.917,11.43517 1.2514,23.593 0.3344,12.15784 0.6597,22.21419 0.7228,22.34745 0.063,0.13326 4.0364,0.13326 8.8293,0 l 8.7146,-0.24229 -0.2337,-19.97966 c -0.1285,-10.98882 -0.4657,-23.96891 -0.7494,-28.84465 -0.4606,-7.91529 -0.7398,-9.0889 -2.606,-10.9551 -1.9751,-1.97511 -2.484,-2.06554 -9.2501,-1.64342 -5.9972,0.37415 -7.6309,0.80591 -10.0599,2.6586 l -2.9,2.2119 -0.565,-2.57245 -0.565,-2.57245 -8.4926,0.24147 -8.4926,0.24148 0.095,30.09952 c 0.052,16.55473 0.3031,30.43664 0.5578,30.84868 0.2546,0.41203 4.3539,0.64046 9.1094,0.50762 l 8.6464,-0.24154 z m -101.443,-34.16734 c -0.2714,-0.67823 -0.4728,-0.47677 -0.5136,0.51366 -0.037,0.89625 0.164,1.3984 0.4465,1.11589 0.2825,-0.28252 0.3127,-1.01581 0.067,-1.62955 z m -2.1628,-3.26967 c -1.1039,-0.91966 -2.443,-1.67009 -2.9757,-1.66763 -0.5327,0.002 0.1792,0.73967 1.582,1.63825 3.3134,2.12234 3.9214,2.13516 1.3937,0.0294 z m -28.8009,-2.27059 c -1.0457,-0.2018 -2.9586,-0.20703 -4.251,-0.0116 -1.2923,0.19543 -0.4367,0.36054 1.9013,0.36692 2.338,0.006 3.3954,-0.15351 2.3497,-0.35531 z"
     id="path5397"
     inkscape:connector-curvature="0" /><path
     style="fill:#151b1f;fill-opacity:1;stroke:#151b1f;stroke-width:0.85019827;stroke-opacity:1"
     d="m 1146.9186,232.58737 c -0.3118,-0.31174 -0.5668,-14.08495 -0.5668,-30.60714 v -30.04034 h 8.502 8.5019 v 30.60714 30.60714 h -7.9351 c -4.3644,0 -8.1903,-0.25506 -8.502,-0.5668 z"
     id="path5399"
     inkscape:connector-curvature="0" /><path
     style="fill:#151b1f;fill-opacity:1;stroke:#151b1f;stroke-width:0.85019827;stroke-opacity:1"
     d="m 1199.6309,232.58737 c -0.3118,-0.31174 -0.5668,-13.89366 -0.5668,-30.18204 v -29.61524 h 7.6356 c 7.6274,0 7.6361,0.002 8.1944,2.33804 0.8948,3.74367 1.23,3.87777 3.7229,1.48944 2.6795,-2.56717 6.9179,-3.77765 13.3305,-3.8072 3.6994,-0.017 4.6695,0.31992 6.0787,2.1115 1.952,2.48153 2.5906,11.35148 2.9225,40.59154 l 0.2002,17.64248 -7.788,-8.6e-4 -7.788,-8.6e-4 -0.4746,-7.01414 c -0.261,-3.85777 -0.7004,-13.87208 -0.9763,-22.25402 -0.2759,-8.38193 -0.8754,-15.93807 -1.332,-16.79141 -0.4567,-0.85335 -1.5353,-1.55154 -2.3968,-1.55154 -3.6045,0 -3.8859,1.69452 -4.1856,25.2102 l -0.2855,22.40091 h -7.8622 c -4.3242,0 -8.1173,-0.25506 -8.429,-0.5668 z"
     id="path5401"
     inkscape:connector-curvature="0" /><path
     style="fill:#151b1f;fill-opacity:1;stroke:#151b1f;stroke-width:0.85019827;stroke-opacity:1"
     d="m 1019.9298,373.65671 c -5.6033,-0.26785 -6.3019,-0.50989 -8.2895,-2.87199 l -2.1705,-2.57949 V 266.76168 165.31813 l 2.4667,-2.64051 2.4666,-2.64051 228.5747,-0.1347 c 125.7162,-0.0741 229.3302,-0.0634 230.2535,0.0238 0.9233,0.0872 2.7406,1.17585 4.0385,2.41927 l 2.3597,2.26077 V 267.1621 369.71797 l -2.3846,2.28456 -2.3845,2.28455 -224.4059,-0.16893 c -123.4232,-0.0929 -227.1593,-0.30055 -230.5247,-0.46144 z m 333.6358,-138.47116 c 8.017,-0.80834 8.2686,-1.33064 8.5829,-17.81546 0.1494,-7.8307 0.054,-15.10481 -0.2121,-16.16468 -0.5553,-2.21246 -3.5522,-3.37686 -10.8994,-4.23482 l -4.8886,-0.57087 v -4.05387 c 0,-4.83273 0.4921,-5.0733 10.4149,-5.09078 l 6.589,-0.0116 v -6.37649 -6.37648 l -12.5404,0.005 c -13.8457,0.005 -18.3732,0.83282 -19.945,3.6458 -0.7019,1.25612 -1.0563,6.23958 -1.0728,15.08608 -0.029,15.37974 0.6496,17.3954 6.1329,18.22686 9.3571,1.41884 9.1461,1.28109 9.1461,5.97151 v 4.25099 l -8.0769,0.4251 -8.0769,0.4251 -0.2543,5.86703 c -0.1399,3.22687 -0.061,6.37012 0.1747,6.98499 0.3342,0.871 2.6441,1.0226 10.4567,0.68631 5.5152,-0.2374 12.0263,-0.63317 14.4692,-0.87947 z m -50.9484,-0.87236 c 3.5963,-0.37588 5.3536,-0.96064 5.7489,-1.91294 0.8401,-2.02381 2.3765,-52.20436 1.7076,-55.77001 l -0.5723,-3.05046 -8.2452,0.2428 -8.2452,0.24281 -0.5191,21.25495 c -0.2855,11.69023 -0.5724,22.49838 -0.6376,24.01811 -0.1058,2.46416 -0.3892,2.76314 -2.619,2.76314 -1.3753,0 -2.81,-0.47824 -3.1883,-1.06275 -0.3783,-0.58451 -0.8791,-11.39265 -1.1129,-24.0181 l -0.4251,-22.95535 -8.1893,-0.24213 -8.1892,-0.24213 -0.5809,3.09644 c -0.6571,3.50245 0.3003,48.2955 1.1428,53.46675 0.4279,2.62692 1.0116,3.49563 2.6562,3.95369 2.74,0.76312 24.5877,0.91347 31.2686,0.21518 z m -138.735,-4.13472 0.1014,-3.40079 -0.3725,3.3103 -0.3726,3.31029 -7.7868,-0.50449 c -5.0807,-0.32916 -7.3503,-0.22213 -6.5305,0.30798 0.6911,0.44686 4.3172,0.71461 8.0581,0.59499 l 6.8015,-0.21748 z m 61.7434,0.63765 c -0.5203,-5.46772 -0.8545,-5.91307 -0.957,-1.27529 -0.054,2.45494 0.2072,4.46354 0.5809,4.46354 0.3737,0 0.5429,-1.43471 0.3761,-3.18825 z m -78.693,0.47824 c -0.2714,-0.67823 -0.4729,-0.47677 -0.5137,0.51366 -0.037,0.89625 0.164,1.3984 0.4465,1.11589 0.2826,-0.28252 0.3128,-1.01581 0.067,-1.62955 z m 52.7122,0 c -0.2714,-0.67823 -0.4728,-0.47677 -0.5136,0.51366 -0.037,0.89625 0.164,1.3984 0.4465,1.11589 0.2825,-0.28252 0.3127,-1.01581 0.067,-1.62955 z m 4.2917,1.27063 c -0.8272,-0.21556 -1.975,-0.20139 -2.5506,0.0315 -0.5756,0.23289 0.1012,0.40926 1.5041,0.39193 1.4028,-0.0173 1.8737,-0.20787 1.0465,-0.42344 z m 11.8621,-2.12083 c -0.2714,-0.67823 -0.4728,-0.47677 -0.5136,0.51366 -0.037,0.89625 0.164,1.3984 0.4465,1.11589 0.2825,-0.28252 0.3127,-1.01581 0.067,-1.62955 z m -68.8219,-12.38101 c -0.1751,-2.22114 -0.3184,-0.40385 -0.3184,4.03844 0,4.44229 0.1433,6.25959 0.3184,4.03844 0.1751,-2.22114 0.1751,-5.85574 0,-8.07688 z m 52.3387,-16.57887 c -0.2645,-15.548 -0.6205,-28.4285 -0.7912,-28.62334 -0.531,-0.60615 -0.3322,37.2487 0.2485,47.3277 0.3032,5.26061 0.6575,9.56473 0.7874,9.56473 0.1299,0 0.02,-12.72109 -0.2447,-28.26909 z m 41.4519,-7.2245 c -0.7997,-3.81557 -0.8248,-3.70914 -0.4512,1.91076 0.2176,3.27327 0.4843,11.69023 0.5927,18.70436 l 0.1972,12.75298 0.2541,-14.66374 c 0.1397,-8.06505 -0.1271,-16.48202 -0.5928,-18.70436 z m -16.1229,20.16065 c -0.5275,-5.47981 -0.7183,-6.18289 -0.7994,-2.94632 -0.1042,4.16097 0.6931,10.94277 1.2241,10.41176 0.1475,-0.14747 -0.044,-3.50692 -0.4247,-7.46544 z m -0.3615,-15.48674 c -0.2359,-0.58451 -0.4288,-0.10628 -0.4288,1.06274 0,1.16903 0.1929,1.64726 0.4288,1.06275 0.2358,-0.58451 0.2358,-1.54098 0,-2.12549 z m -7.6341,-6.74845 c -0.2714,-0.67823 -0.4729,-0.47677 -0.5136,0.51366 -0.037,0.89625 0.164,1.3984 0.4465,1.11588 0.2825,-0.28251 0.3127,-1.01581 0.067,-1.62954 z m 23.6766,-14.02543 c -0.936,-4.98952 -6.9477,-7.65717 -11.9295,-5.29371 -1.345,0.63808 -1.1228,0.71888 1.0628,0.38659 4.7994,-0.72969 7.6208,0.30306 8.8626,3.24412 0.6199,1.46837 1.1662,3.24365 1.2139,3.94506 0.048,0.70142 0.2101,2.80566 0.361,4.67609 l 0.2745,3.4008 0.3349,-3.80676 c 0.1842,-2.09371 0.1031,-5.0422 -0.1802,-6.55219 z m -19.8901,7.5637 c -0.6134,-0.20446 -1.5195,0.0325 -2.0135,0.52654 -0.6309,0.6309 -0.299,0.74155 1.1152,0.37173 1.1496,-0.30063 1.535,-0.68602 0.8983,-0.89827 z m 1.5841,-10.99704 c 1.169,-0.52901 2.6994,-1.15091 3.4008,-1.38199 0.7014,-0.23108 0.2525,-0.45035 -0.9975,-0.48727 -1.3124,-0.0388 -3.44,0.91499 -5.035,2.25707 -1.8314,1.54108 -2.8799,1.97078 -3.1117,1.2753 -0.1923,-0.57689 -0.7036,-1.0489 -1.1362,-1.0489 -0.4326,0 -0.3165,0.75272 0.2581,1.67272 1.0013,1.60335 1.1161,1.61056 2.7703,0.17382 0.9491,-0.8244 2.6822,-1.93173 3.8512,-2.46075 z m -7.1917,-1.87982 c -0.3249,-0.52572 -3.1295,-0.85604 -6.6742,-0.78605 l -6.1137,0.1207 5.7357,0.58474 c 3.1547,0.3216 5.9923,0.84117 6.3057,1.15459 0.8267,0.82674 1.4061,-0.007 0.7465,-1.07398 z"
     id="path5403"
     inkscape:connector-curvature="0" /><path
     style="fill:#151b1f;fill-opacity:1;stroke:#151b1f;stroke-width:0.85019827;stroke-opacity:1"
     d="m 1015.7,373.53752 c -1.4833,-0.28916 -3.4818,-1.52977 -4.4412,-2.75694 -1.7358,-2.22037 -1.7447,-2.72565 -1.8193,-104.08025 l -0.075,-101.84905 2.6196,-2.61963 2.6196,-2.61963 229.6326,-0.21719 229.6326,-0.21718 3.3882,3.38818 3.3882,3.38819 -0.2954,101.56027 -0.2953,101.56026 -2.4971,2.60627 -2.4971,2.60626 -228.3317,-0.11192 c -125.5825,-0.0616 -229.5454,-0.34849 -231.0287,-0.63764 z m 342.4477,-139.37697 c 1.2222,-0.48187 2.4981,-1.57496 2.8354,-2.4291 1.0824,-2.74073 1.5768,-27.72037 0.5979,-30.20435 -0.9567,-2.42742 -3.3837,-3.37963 -11.4366,-4.48714 l -4.0808,-0.56122 0.2549,-4.40509 0.255,-4.40509 8.0769,-0.4251 8.0768,-0.4251 0.2498,-6.16394 0.2498,-6.16393 -10.8772,0.0507 c -13.8483,0.0645 -18.8083,0.85896 -20.812,3.3334 -1.3407,1.65562 -1.543,3.61588 -1.543,14.94936 0,8.07886 0.3751,13.86717 0.9855,15.20677 0.9898,2.1723 4.9328,3.85383 9.0602,3.86377 3.9673,0.01 5.2579,1.45334 5.2579,5.88205 v 4.11708 l -7.6292,0.36475 c -4.196,0.20062 -7.8183,0.55396 -8.0496,0.78521 -0.7612,0.76122 -1.559,9.97545 -0.9917,11.45382 0.501,1.30547 1.8661,1.40283 13.9267,0.99332 7.3542,-0.24971 14.3712,-0.84828 15.5933,-1.33015 z m -51.8246,-0.67785 c 0.7751,-0.21629 1.6779,-1.04823 2.0062,-1.84874 0.3283,-0.80052 0.8011,-14.226 1.0505,-29.8344 l 0.4537,-28.37891 -7.751,0.37058 c -4.263,0.20381 -8.0151,0.63475 -8.338,0.95764 -0.3229,0.32289 -0.8733,11.01369 -1.2232,23.75734 -0.3499,12.74366 -0.6698,23.26593 -0.7109,23.38283 -0.2623,0.74618 -5.2007,0.0164 -5.7535,-0.8502 -0.3729,-0.58451 -0.9156,-11.11574 -1.2061,-23.40273 -0.2904,-12.28699 -0.7833,-22.5952 -1.0952,-22.90714 -0.312,-0.31194 -4.0424,-0.73332 -8.2898,-0.93639 l -7.7226,-0.36922 0.3347,28.37756 c 0.2389,20.25136 0.633,28.91326 1.3761,30.24829 0.8409,1.51057 1.9812,1.9372 5.9227,2.21594 5.5913,0.39541 28.8311,-0.19218 30.9464,-0.78245 z m -66.7189,-56.60103 c -0.2714,-0.67823 -0.4729,-0.47677 -0.5137,0.51366 -0.037,0.89625 0.164,1.3984 0.4466,1.11589 0.2825,-0.28252 0.3127,-1.01581 0.067,-1.62955 z m -16.3155,-3.23164 c 0.2979,-0.48195 -0.043,-0.62448 -0.8,-0.33414 -1.4729,0.5652 -1.7424,1.1746 -0.5195,1.1746 0.4401,0 1.0338,-0.37821 1.3195,-0.84046 z"
     id="path5405"
     inkscape:connector-curvature="0" /><path
     style="fill:#151b1f;fill-opacity:1;stroke:#151b1f;stroke-width:0.85019827;stroke-opacity:1"
     d="m 1329.4337,233.53203 c -0.5341,-1.39191 0.2515,-8.85387 1.0123,-9.61464 0.2442,-0.24425 3.8772,-0.60822 8.0732,-0.80884 l 7.6292,-0.36475 -0.012,-3.50935 c -0.02,-5.99254 -0.6839,-7.24232 -4.1205,-7.75488 -6.4521,-0.96231 -9.8059,-2.46971 -10.4159,-4.68155 -0.3223,-1.16902 -0.6242,-7.53501 -0.6708,-14.14663 -0.073,-10.356 0.1256,-12.28093 1.4339,-13.89666 2.0215,-2.49643 6.852,-3.33197 19.5237,-3.37702 l 10.4149,-0.037 v 5.52629 5.52629 h -7.1571 c -9.7691,0 -9.8468,0.0469 -9.8468,5.94439 v 4.91226 l 4.8886,0.60601 c 7.7874,0.96533 10.2102,2.30987 10.913,6.05618 1.0138,5.40413 -0.3455,26.90327 -1.7925,28.35025 -1.4493,1.44936 -10.0238,2.46338 -21.475,2.53965 -6.3883,0.0426 -7.9877,-0.19929 -8.3986,-1.26997 z"
     id="path5407"
     inkscape:connector-curvature="0" /><path
     style="fill:#151b1f;fill-opacity:1;stroke:#151b1f;stroke-width:0.85019827;stroke-opacity:1"
     d="m 1014.0861,373.4669 c -4.5697,-1.84951 -4.3194,3.4708 -4.9968,-106.18846 l -0.6268,-101.48236 3.2268,-3.30458 3.2268,-3.30458 229.5936,0.007 229.5935,0.007 3.1883,3.02186 3.1882,3.02186 v 101.90502 101.90502 l -2.2011,2.61582 -2.201,2.61583 -230.1157,-0.0539 c -126.5635,-0.0296 -230.9076,-0.37446 -231.8758,-0.76628 z m 331.1507,-138.5564 c 0.7618,-0.48212 -1.9784,-0.71475 -7.3578,-0.62463 -4.7145,0.079 -8.3945,0.43054 -8.1779,0.78124 0.5589,0.90494 14.0736,0.7687 15.5357,-0.15661 z m 14.656,-2.56983 c 1.0939,-1.35096 1.5591,-3.33488 1.5591,-6.64908 0,-5.69263 -0.5207,-5.58182 -1.1419,0.24302 -0.554,5.19389 -1.1651,6.90699 -2.508,7.03066 -3.7604,0.34632 -8.7294,1.23784 -9.0942,1.63164 -0.2386,0.25773 1.8295,0.28875 4.596,0.0689 3.9019,-0.31006 5.3795,-0.83145 6.589,-2.32516 z m -54.2919,0.8755 c 1.1402,-0.43351 2.2943,-1.67692 2.5646,-2.76314 0.2703,-1.08623 0.7621,-14.35888 1.0929,-29.49479 l 0.6014,-27.51984 -7.9993,0.621 c -4.3996,0.34155 -8.0746,0.68541 -8.1666,0.76415 -0.092,0.0787 -0.3957,9.1225 -0.675,20.09726 -0.2793,10.97475 -0.7057,21.5801 -0.9476,23.56744 -0.4064,3.33919 -0.631,3.61334 -2.9593,3.61334 -1.8346,0 -2.7137,-0.52007 -3.2334,-1.91295 -0.3926,-1.05212 -0.9907,-11.66897 -1.329,-23.593 -0.3383,-11.92403 -0.6772,-21.73297 -0.753,-21.79765 -0.076,-0.0647 -3.7391,-0.39717 -8.1408,-0.73888 l -8.0029,-0.62128 0.5368,28.266 c 0.4462,23.49347 0.7601,28.6066 1.8587,30.28327 1.3138,2.00518 1.418,2.01727 17.4005,2.01727 8.8434,0 17.0118,-0.35469 18.152,-0.7882 z m 24.1296,-4.10044 c -0.2139,-0.81832 -0.3888,-0.14879 -0.3888,1.48784 0,1.63663 0.1749,2.30617 0.3888,1.48785 0.2138,-0.81832 0.2138,-2.15738 0,-2.97569 z m 2.453,-5.4031 c 1.3682,-0.536 1.253,-0.65114 -0.701,-0.70109 -2.0121,-0.0514 -2.3298,0.26625 -2.2783,2.27829 0.05,1.95407 0.165,2.06921 0.701,0.70108 0.3528,-0.90032 1.378,-1.92555 2.2783,-2.27828 z m 6.9346,-0.49982 c -0.8273,-0.21556 -1.975,-0.20139 -2.5506,0.0315 -0.5756,0.23289 0.1012,0.40926 1.504,0.39193 1.4028,-0.0173 1.8738,-0.20787 1.0466,-0.42344 z m 4.2494,-0.77468 c -0.2825,-0.28252 -1.0158,-0.31272 -1.6295,-0.0671 -0.6783,0.27141 -0.4768,0.47287 0.5136,0.51367 0.8963,0.0369 1.3984,-0.16403 1.1159,-0.44655 z m 2.6822,-3.94988 c -0.1024,-4.63777 -0.4366,-4.19243 -0.9569,1.27529 -0.1669,1.75354 0,3.18825 0.3761,3.18825 0.3737,0 0.6351,-2.00859 0.5808,-4.46354 z m 15.1381,-2.9757 c -0.2138,-0.81831 -0.3888,-0.14878 -0.3888,1.48785 0,1.63663 0.175,2.30616 0.3888,1.48785 0.2139,-0.81832 0.2139,-2.15738 0,-2.9757 z m -20.309,-4.0651 c -0.2484,-0.24847 -1.2313,-0.60189 -2.184,-0.78537 -3.3892,-0.6527 -6.8846,-3.02393 -7.2488,-4.91743 -0.3336,-1.73473 -0.3809,-1.70432 -0.4854,0.31162 -0.1303,2.5132 1.2075,3.92477 4.7185,4.97866 2.7621,0.8291 5.8623,1.07505 5.1997,0.41252 z m 20.3037,-6.50924 c -0.2714,-0.67823 -0.4728,-0.47677 -0.5136,0.51366 -0.037,0.89625 0.164,1.3984 0.4465,1.11589 0.2825,-0.28251 0.3127,-1.01581 0.067,-1.62955 z m -29.7974,-12.83532 c -0.1332,-5.71215 -0.07,-11.06737 0.1401,-11.90049 0.4338,-1.7194 2.6722,-3.11101 5.9641,-3.70794 2.8248,-0.51223 3.5342,-1.15378 1.2759,-1.15378 -3.7382,0 -6.942,1.80992 -7.8587,4.43954 -1.1507,3.30085 -1.2356,23.91743 -0.096,23.21287 0.4716,-0.29145 0.714,-4.89007 0.5742,-10.8902 z m 28.3929,7.74404 c -1.0534,-0.85299 -2.5424,-1.52664 -3.3089,-1.497 -0.9712,0.0376 -0.8234,0.2834 0.4877,0.8111 1.0347,0.41647 2.3725,1.54376 2.9729,2.5051 0.6609,1.05826 1.2241,1.35014 1.4276,0.73979 0.1848,-0.55446 -0.5259,-1.706 -1.5793,-2.55899 z m -5.5527,-1.55089 c -0.289,-0.46761 -1.1724,-0.82331 -1.9632,-0.79044 -1.172,0.0487 -1.1234,0.19478 0.2628,0.79044 2.275,0.97762 2.3046,0.97762 1.7004,0 z m -6.1181,-1.01718 c -1.0268,-0.49615 -2.0216,-1.90496 -2.2106,-3.1307 -0.3066,-1.98841 -0.3574,-1.93752 -0.471,0.4722 -0.091,1.92644 0.2992,2.81228 1.3604,3.08961 2.6391,0.68968 3.2371,0.49457 1.3212,-0.43111 z m 6.7405,-10.65156 c -1.5281,-0.18923 -3.8237,-0.18532 -5.1012,0.009 -1.2776,0.19399 -0.027,0.34881 2.7784,0.34404 2.8056,-0.005 3.8509,-0.1635 2.3228,-0.35272 z m 7.9735,-10.92335 c -0.3618,-0.94265 -2.3217,-1.20013 -8.7818,-1.15371 -4.5739,0.0329 -9.0813,0.3923 -10.0165,0.79873 -1.0083,0.43819 2.3658,0.53415 8.2894,0.23577 l 9.9898,-0.5032 0.1158,2.89272 c 0.084,2.10244 0.2187,2.35322 0.4924,0.91794 0.2071,-1.08613 0.167,-2.52084 -0.089,-3.18825 z"
     id="path5409"
     inkscape:connector-curvature="0" /><path
     style="fill:#151b1f;fill-opacity:1;stroke:#151b1f;stroke-width:0.85019827;stroke-opacity:1"
     d="m 1271.2338,231.76179 c -1.3986,-1.68519 -2.2638,-16.42894 -2.3755,-40.47989 l -0.078,-16.79141 h 2.0008 c 1.1004,0 4.288,0.23906 7.0835,0.53125 l 5.0828,0.53125 0.9046,22.44262 c 0.6157,15.2751 1.2377,22.844 1.9477,23.6994 0.5736,0.69123 2.2903,1.25678 3.8147,1.25678 h 2.7717 l 0.5063,-6.16394 c 0.2785,-3.39016 0.755,-14.05327 1.0588,-23.69579 l 0.5524,-17.53186 5.1172,-0.53486 c 2.8145,-0.29417 6.074,-0.53485 7.2432,-0.53485 h 2.126 l -0.6181,26.90416 c -0.3399,14.79729 -0.9402,27.75151 -1.3339,28.78716 -0.9818,2.58216 -3.6605,2.97236 -20.4057,2.97236 -12.1555,0 -14.4123,-0.20407 -15.3985,-1.39238 z"
     id="path5411"
     inkscape:connector-curvature="0" /><path
     style="fill:#151b1f;fill-opacity:1;stroke:#151b1f;stroke-width:0.85019827;stroke-opacity:1"
     d="m 1013.983,373.42872 c -1.0249,-0.41281 -2.4925,-1.71059 -3.2613,-2.88394 -1.2701,-1.93848 -1.4421,-11.37283 -1.8828,-103.26721 l -0.4851,-101.13384 2.755,-3.4784 2.7549,-3.47841 h 230.3027 230.3027 l 3.0053,2.63867 3.0053,2.63866 v 102.62686 102.62686 l -2.3846,2.28456 -2.3845,2.28455 -229.9321,-0.0539 c -130.8255,-0.0307 -230.7353,-0.3774 -231.7955,-0.80447 z m 324.7378,-138.32244 c -1.0457,-0.2018 -2.9586,-0.20703 -4.251,-0.0116 -1.2923,0.19542 -0.4368,0.36053 1.9013,0.36691 2.338,0.006 3.3954,-0.1535 2.3497,-0.35531 z m -38.483,-1.73956 c 0,-0.35071 -6.085,-0.59255 -13.5222,-0.53742 -7.4373,0.0551 -13.8736,-0.13617 -14.303,-0.4251 -1.3969,-0.94005 -1.9818,-3.65792 -2.4771,-11.51094 -0.2678,-4.24531 -0.6841,-7.91005 -0.9252,-8.14385 -0.6481,-0.62849 0.3079,17.18514 1.0126,18.86851 0.3314,0.7917 1.2396,1.60814 2.0181,1.81432 2.4839,0.65786 28.1967,0.5981 28.1968,-0.0655 z m 6.6314,-1.23279 c 0.5611,-0.56113 0.975,-2.18714 0.9197,-3.61334 l -0.1006,-2.59311 -0.5371,2.41038 c -0.2954,1.32571 -1.4935,2.93815 -2.6625,3.58321 -1.928,1.06382 -1.9635,1.17564 -0.3826,1.20297 0.9586,0.0166 2.202,-0.42898 2.7631,-0.99011 z m 54.3217,-6.40282 c -0.2155,-0.82721 -0.4061,-0.35626 -0.4234,1.04657 -0.017,1.40283 0.159,2.07964 0.3919,1.50403 0.2329,-0.57561 0.2471,-1.72338 0.032,-2.5506 z m -52.5773,-10.64366 -0.1261,-10.41492 -0.6688,8.92708 c -0.609,8.1275 -0.4335,11.90277 0.5531,11.90277 0.2023,0 0.3111,-4.68671 0.2418,-10.41493 z m 22.6271,7.99175 c -0.479,-0.50429 -2.0963,0.7738 -2.0963,1.65668 0,0.45845 0.5353,0.34022 1.1896,-0.26272 0.6542,-0.60295 1.0623,-1.23023 0.9067,-1.39396 z m -38.6548,-1.54441 c 0,-0.77935 -0.287,-1.07074 -0.6377,-0.64754 -0.3507,0.4232 -1.0202,1.05499 -1.4878,1.40398 -0.4852,0.36211 -0.2114,0.64011 0.6376,0.64754 0.8271,0.007 1.4879,-0.6163 1.4879,-1.40398 z m 0.563,-4.74694 c -0.2358,-0.58451 -0.4288,-0.10627 -0.4288,1.06275 0,1.16902 0.193,1.64726 0.4288,1.06275 0.2359,-0.58451 0.2359,-1.54099 0,-2.1255 z m -8.5019,-3.40079 c -0.2359,-0.58451 -0.4289,-0.10628 -0.4289,1.06275 0,1.16902 0.193,1.64725 0.4289,1.06274 0.2358,-0.58451 0.2358,-1.54098 0,-2.12549 z m 9.1014,-8.71453 c 0.3316,-4.90679 0.2372,-7.04179 -0.263,-5.95139 -0.7321,1.59593 -1.2746,14.72343 -0.5768,13.95742 0.1775,-0.19484 0.5554,-3.79755 0.8398,-8.00603 z m 41.7725,5.38142 c -0.9352,-0.51885 -2.3864,-1.53789 -3.2248,-2.26453 -1.3797,-1.19571 -1.4759,-1.19464 -1.0132,0.0112 0.2812,0.73281 1.3498,1.73758 2.3746,2.23283 2.4855,1.20107 4.0218,1.21795 1.8634,0.0205 z m -50.837,-6.01907 c -0.2026,-1.05212 -0.3684,-0.1913 -0.3684,1.91294 0,2.10424 0.1658,2.96507 0.3684,1.91295 0.2027,-1.05212 0.2027,-2.77377 0,-3.82589 z m -15.5247,-12.65772 -0.6206,-17.12126 3.3091,0.51464 c 3.0011,0.46673 3.0889,0.43062 0.943,-0.38801 -4.4263,-1.68861 -4.8606,-0.85753 -4.8606,9.30284 0,10.0486 0.879,24.81305 1.4773,24.81305 0.2048,0 0.093,-7.70457 -0.2482,-17.12126 z m 14.6606,5.43103 c -0.2139,-0.81831 -0.3889,-0.14878 -0.3889,1.48785 0,1.63663 0.175,2.30616 0.3889,1.48785 0.2138,-0.81832 0.2138,-2.15738 0,-2.9757 z m 46.7973,-7.22668 c -0.179,-1.98734 -0.3254,-0.36134 -0.3254,3.61334 0,3.97468 0.1464,5.60068 0.3254,3.61334 0.179,-1.98734 0.179,-5.23935 0,-7.22668 z m -21.112,-5.10119 c 0.084,-10.72755 0.065,-10.83901 -1.8282,-10.74141 -1.623,0.0837 -1.6685,0.16119 -0.3002,0.51149 1.5196,0.38904 1.5847,1.1315 1.1278,12.8669 -0.2697,6.92856 -0.1741,11.51102 0.2155,10.32854 0.3852,-1.16902 0.7385,-7.00351 0.7851,-12.96552 z m -13.9435,-8.17543 c 0.4676,-0.45112 1.8066,-1.00621 2.9757,-1.23354 1.1737,-0.22824 0.6027,-0.35565 -1.2753,-0.28454 l -3.4008,0.12878 -0.085,9.77728 -0.085,9.77728 0.51,-8.67252 c 0.2804,-4.76988 0.8925,-9.04161 1.3601,-9.49274 z m -11.8409,-0.68437 c -0.2654,-0.69175 -1.6805,-1.09102 -3.6486,-1.02944 -3.0905,0.0967 -3.1165,0.12164 -0.6714,0.64476 2.9081,0.62219 3.4608,2.20053 3.9072,11.15742 0.2558,5.13095 0.2959,4.98371 0.5609,-2.05821 0.1571,-4.17147 0.09,-8.09301 -0.1481,-8.71453 z m 20.9805,-0.84291 c -0.5845,-0.23585 -1.541,-0.23585 -2.1255,0 -0.5845,0.23586 -0.1063,0.42883 1.0628,0.42883 1.169,0 1.6472,-0.19297 1.0627,-0.42883 z"
     id="path5413"
     inkscape:connector-curvature="0" /><path
     style="fill:#151b1f;fill-opacity:1;stroke:#151b1f;stroke-width:0.85019827;stroke-opacity:1"
     d="m 1162.2193,374.29183 -148.6458,-0.42984 -1.9211,-2.23354 c -1.8678,-2.17142 -1.9366,-2.91609 -2.4766,-26.78124 -0.3054,-13.50124 -0.6045,-59.48588 -0.6646,-102.18809 l -0.1092,-77.64038 2.8262,-2.91591 2.8262,-2.91591 h 230.4953 230.4953 l 2.7375,2.82443 2.7375,2.82443 -0.03,102.26509 -0.03,102.26509 -1.9031,2.3809 c -1.0467,1.3095 -2.6682,2.60282 -3.6034,2.87405 -1.7143,0.49719 -41.4636,0.45536 -312.7341,-0.32908 z m 109.2972,-142.20041 c -0.4801,-0.58451 -1.0487,-2.01922 -1.2636,-3.18824 l -0.3908,-2.1255 -0.1158,2.16801 c -0.064,1.1924 0.3433,2.62711 0.9045,3.18824 1.3446,1.34464 1.9794,1.31348 0.8657,-0.0425 z m 35.8554,-1.12848 c 0.6352,-1.6553 0.2108,-1.51891 -1.6411,0.52742 -1.2914,1.42701 -1.3266,1.64286 -0.1975,1.20956 0.756,-0.29008 1.5833,-1.07173 1.8386,-1.73698 z m 1.1067,-12.03341 c -0.2155,-0.82722 -0.4061,-0.35626 -0.4234,1.04656 -0.017,1.40283 0.159,2.07964 0.3919,1.50403 0.2329,-0.57561 0.2471,-1.72338 0.032,-2.55059 z m -26.4533,-43.39654 c -1.464,-1.40222 -1.4821,-1.3841 -0.4066,0.40668 0.619,1.03085 1.3085,1.69127 1.5322,1.4676 0.2237,-0.22367 -0.2828,-1.0671 -1.1256,-1.87428 z"
     id="path5415"
     inkscape:connector-curvature="0" /><g
     inkscape:groupmode="layer"
     id="layer2"
     inkscape:label="Layer 1"><path
       style="fill:#f5d04e;fill-opacity:1;stroke:#151b1f;stroke-width:0.54847145;stroke-opacity:1"
       d="m 1042.029,325.96494 -2.5022,-0.19078 4e-4,-6.75204 c 2e-4,-3.71362 -0.053,-30.61011 -0.1192,-59.76995 l -0.1195,-53.01789 -1.381,-6.48153 c -0.7596,-3.56482 -1.2613,-6.64016 -1.1148,-6.83408 0.3059,-0.40518 26.5315,-0.35612 27.0284,0.0505 0.6085,0.49802 2.375,14.18853 2.4017,18.61339 0,0.52982 0.7531,-1.30888 1.6665,-4.08602 1.9198,-5.83771 4.6525,-11.31878 6.5831,-13.20394 1.2647,-1.23504 2.0592,-1.324 13.4009,-1.50053 l 12.0564,-0.18766 1.5613,1.73978 c 2.0014,2.2301 3.7027,7.10765 4.0996,11.7535 0.1716,2.00775 0.4146,3.51459 0.54,3.34852 0.1254,-0.16607 0.9365,-2.46036 1.8025,-5.09843 3.3815,-10.30113 5.1878,-11.73862 14.7337,-11.7257 9.65,0.013 15.3353,1.59123 17.526,4.86506 1.3629,2.03674 2.189,5.38853 2.4696,10.02097 0.1468,2.42363 0.3978,30.0398 0.5578,61.36926 l 0.2908,56.9627 h -13.8632 -13.8631 v -49.07312 c 0,-46.8973 -0.041,-49.1593 -0.8969,-51.0169 -1.0436,-2.26645 -3.3517,-3.72937 -5.0129,-3.17724 -1.6732,0.55611 -3.9163,3.76497 -4.2703,6.10874 -0.1668,1.10568 -0.3035,23.41015 -0.3035,49.56549 v 47.55519 l -13.5725,0.17671 -13.5725,0.17672 -0.1301,-49.02717 c -0.1284,-48.40481 -0.1425,-49.04978 -1.114,-50.80882 -0.5412,-0.97991 -1.7744,-2.30208 -2.7405,-2.93818 -1.703,-1.12125 -1.8101,-1.12125 -3.5131,0 -0.9661,0.6361 -2.1993,1.95824 -2.7405,2.93811 -0.9692,1.75479 -0.9876,2.51905 -1.2223,50.80882 l -0.2383,49.02724 h -10.9625 c -6.0291,0 -12.0881,-0.0859 -13.4643,-0.19078 z"
       id="path3780"
       inkscape:connector-curvature="0" /><path
       style="fill:#f5d04e;fill-opacity:1;stroke:#151b1f;stroke-width:0.54847145;stroke-opacity:1"
       d="m 1166.5003,260.04108 v -66.90356 h 13.5834 13.5834 v 66.90356 66.90355 h -13.5834 -13.5834 z"
       id="path3782"
       inkscape:connector-curvature="0" /><path
       style="fill:#f5d04e;fill-opacity:1;stroke:#151b1f;stroke-width:0.54847145;stroke-opacity:1"
       d="m 1266.9311,325.78366 -8.6981,-0.18719 -0.01,-16.55386 c -0.038,-66.87326 -0.2045,-79.67694 -1.0601,-81.40575 -2.175,-4.3955 -4.7959,-5.4642 -7.2166,-2.94266 -2.7887,2.90493 -2.6761,0.67783 -2.6761,52.93083 v 47.99992 h -13.8217 -13.8218 l -0.011,-59.80293 -0.011,-59.80294 -1.3861,-6.78503 -1.3862,-6.78504 2.4694,-0.0978 c 1.3581,-0.0538 7.6574,-0.12484 13.9983,-0.1578 l 11.529,-0.0599 0.4742,2.52466 c 0.2608,1.38856 0.7203,4.93841 1.021,7.88853 0.3008,2.95013 0.5982,5.4319 0.661,5.51505 0.063,0.0831 0.4764,-1.37091 0.9192,-3.23123 0.9819,-4.12487 3.92,-8.72392 6.4192,-10.04821 3.0881,-1.63627 9.1815,-2.46525 16.438,-2.23632 6.8339,0.21559 6.9605,0.24569 8.991,2.13663 1.3758,1.28122 2.5362,3.15198 3.4954,5.63511 l 1.4358,3.71715 0.3124,14.87777 c 0.1717,8.18279 0.3326,35.50101 0.3574,60.70716 l 0.045,45.82938 -2.5022,0.39801 c -1.3762,0.21891 -3.5746,0.3363 -4.8853,0.26085 -1.3107,-0.0754 -6.2972,-0.22137 -11.0812,-0.32432 z"
       id="path3784"
       inkscape:connector-curvature="0" /><path
       style="fill:#f5d04e;fill-opacity:1;stroke:#151b1f;stroke-width:0.54847145;stroke-opacity:1"
       d="m 1309.5252,327.48855 c -3.2426,-0.45858 -3.7031,-0.7034 -5.0888,-2.70581 -0.8379,-1.21089 -1.7727,-3.29352 -2.0772,-4.62808 -0.396,-1.7354 -0.6275,-19.88212 -0.8129,-63.71581 l -0.2592,-61.28935 2.3091,-0.34467 c 1.27,-0.18957 7.4109,-0.18767 13.6466,0.004 l 11.3374,0.34884 0.046,17.41917 c 0.025,9.58053 0.032,31.33634 0.015,48.34626 -0.017,17.00991 0.1231,32.17552 0.3115,33.70135 0.4722,3.82571 2.1153,5.39674 5.6647,5.41627 2.3089,0.0127 2.783,-0.20039 3.586,-1.61212 0.5091,-0.89472 1.1206,-2.74089 1.3591,-4.10257 0.2398,-1.36945 0.4387,-24.12314 0.445,-50.91777 l 0.011,-48.44196 h 13.5835 13.5834 l -0.01,59.17178 c 0,34.67671 -0.1916,60.69896 -0.459,62.86093 -0.6172,4.99045 -1.8295,8.0146 -3.8278,9.54774 -1.6115,1.23648 -2.4844,1.28271 -25.737,1.36286 -13.2379,0.0456 -25.6732,-0.14395 -27.6341,-0.42125 z"
       id="path3786"
       inkscape:connector-curvature="0" /><path
       style="fill:#f5d04e;fill-opacity:1;stroke:#151b1f;stroke-width:0.54847145;stroke-opacity:1"
       d="m 1401.0688,329.99456 -11.0812,-0.19673 v -15.13634 -15.13634 h 12.8685 12.8685 v -10.02674 -10.02675 l -7.745,-0.43715 c -4.2597,-0.24042 -8.5614,-0.71409 -9.5592,-1.0526 -2.222,-0.75378 -5.2864,-4.31492 -6.6801,-7.76291 -1.0229,-2.53077 -1.0378,-2.98536 -1.0378,-31.60133 0,-32.33478 -0.1088,-31.15913 3.3511,-36.23062 3.0806,-4.51559 5.3144,-5.30985 16.19,-5.75664 5.2427,-0.21538 14.8404,-0.25926 21.3283,-0.0975 l 11.7962,0.29411 v 14.42589 14.42587 h -13.1069 -13.1068 v 9.70984 9.70982 l 9.5629,0.46354 9.5628,0.46353 2.2158,1.97658 c 1.5103,1.34722 2.6536,3.08186 3.5906,5.44797 l 1.375,3.47141 -0.2086,29.3492 c -0.1994,28.0505 -0.2539,29.51677 -1.2324,33.13619 -1.3235,4.89565 -3.8274,8.11113 -7.3031,9.37888 -2.9063,1.06009 -15.8445,1.5249 -33.6486,1.20882 z"
       id="path3788"
       inkscape:connector-curvature="0" /></g></svg>