<?xml version="1.0" encoding="UTF-8" standalone="no"?>
<!-- Generator: Adobe Illustrator 19.1.0, SVG Export Plug-In . SVG Version: 6.00 Build 0)  -->

<svg
   xmlns:dc="http://purl.org/dc/elements/1.1/"
   xmlns:cc="http://creativecommons.org/ns#"
   xmlns:rdf="http://www.w3.org/1999/02/22-rdf-syntax-ns#"
   xmlns:svg="http://www.w3.org/2000/svg"
   xmlns="http://www.w3.org/2000/svg"
   xmlns:sodipodi="http://sodipodi.sourceforge.net/DTD/sodipodi-0.dtd"
   xmlns:inkscape="http://www.inkscape.org/namespaces/inkscape"
   version="1.1"
   id="Layer_1"
   x="0px"
   y="0px"
   viewBox="0 0 1500.6 516.3"
   enable-background="new 0 0 977.6 516.3"
   xml:space="preserve"
   sodipodi:docname="sjMinus-logo.svg"
   width="1500.6"
   height="516.29999"
   inkscape:version="0.92.0 r15299"><metadata
     id="metadata3695"><rdf:RDF><cc:Work
         rdf:about=""><dc:format>image/svg+xml</dc:format><dc:type
           rdf:resource="http://purl.org/dc/dcmitype/StillImage" /><dc:title></dc:title></cc:Work></rdf:RDF></metadata><defs
     id="defs3693" /><sodipodi:namedview
     pagecolor="#ffffff"
     bordercolor="#666666"
     borderopacity="1"
     objecttolerance="10"
     gridtolerance="10"
     guidetolerance="10"
     inkscape:pageopacity="0"
     inkscape:pageshadow="2"
     inkscape:window-width="1920"
     inkscape:window-height="1017"
     id="namedview3691"
     showgrid="false"
     inkscape:zoom="1.1761962"
     inkscape:cx="783.68091"
     inkscape:cy="258.14999"
     inkscape:window-x="-8"
     inkscape:window-y="-8"
     inkscape:window-maximized="1"
     inkscape:current-layer="Layer_1" /><g
     id="g3688"
     transform="translate(0,2.2070312e-6)"><path
       d="M 125.3,253.1 C 84.6,243.4 52.8,238.6 45.8,266.7 26.3,234.2 33.9,189.1 59.4,173.4 c 42.7,-26.6 78.3,19.2 92.6,-1.6 7.5,-10.4 -18.2,-25.7 -43,-35.4 C 45.7,111.5 34.6,64.4 53.3,33.6 83.2,-15.9 159,4.3 182.6,13.3 c 24.9,9.2 47,5.9 49.7,-13.3 15.1,10.2 33.1,62.7 1.4,87.1 -43.9,33.9 -98.1,-30.4 -112,-7.7 -5.6,9.9 10.4,23.9 38.8,35.1 56.8,21.3 94.1,43.5 77.9,97.7 -13.9,48.3 -72.5,50.6 -113.1,40.9 z m 195.2,1.1 c -43.3,1 -68,-42.8 -65,-82.7 2.8,-45.4 27.2,-95.9 80,-94.5 26.8,0.2 46.7,26 44.4,48.9 -3.3,28.4 -23.9,51.8 -54.1,39.8 13.9,-7.5 11.3,-29 -1.5,-29.3 -12.8,0.3 -15.9,17.7 -15.9,34.1 0,16.4 11.8,37.4 29.5,36.9 17.7,-0.5 37.1,-16.1 43.2,-40.6 4.4,39.9 -17.9,86.3 -60.6,87.4 z m 171,-65.2 c -19.6,-6.9 -28,-24.6 -24.5,-54.8 -0.6,0 -4.9,0.9 -5.3,5.7 -1.4,10.2 -2.6,18.7 -6.2,51.3 -3,32 10.1,36 25.6,31.7 -4.1,14.3 -28.9,36.8 -58.5,25.5 -34.9,-13.5 -25.4,-59.7 -20.8,-105 3.4,-45.4 1.5,-52.8 -13.5,-55.8 19.9,-13.7 57.8,-24.9 71.5,4.1 8.5,-8.5 24.5,-18.3 43,-13.2 29.2,7.7 21.3,41.1 17.7,64.6 -3.5,22.9 7.7,27.3 17,25 -7.5,18.3 -25.9,28.5 -46,20.9 z m 148.9,59.8 c -32,13.4 -75.2,-3.8 -87.6,-57 -13.2,-53.3 20.6,-106.8 62,-114.7 12.3,-2.1 49.5,-2.4 50.9,43.3 0.5,42 -27,60.1 -52.1,63.1 4.6,11.9 12.5,19.8 25.9,20.2 14.6,-0.1 27,-10.8 33.9,-30.3 2.6,21.4 -3.5,63 -33,75.4 z M 610,165.6 c 22.6,-9.3 25.9,-29.7 13.7,-29.4 -9,-0.7 -14.5,15.9 -13.7,29.4 z m 166.7,83 c -32,13.4 -75.2,-3.8 -87.6,-57 -13.1,-53.4 20.7,-106.8 62,-114.7 12.3,-2.1 49.5,-2.4 50.9,43.3 0.5,42 -27,60.1 -52.1,63.1 4.6,11.9 12.5,19.8 25.9,20.2 14.6,-0.1 26.4,-10.8 33.9,-30.3 2,21.4 -3.5,63 -33,75.4 z m -30.3,-83.2 c 22.6,-9.3 25.9,-29.7 13.7,-29.4 -9.1,-0.7 -14.6,15.9 -13.7,29.4 z m 181.9,81.7 c -42,-8.6 -33.6,-55.4 -29.5,-78.3 5.9,-30 9.3,-35.2 2.9,-39.3 -5.3,-2.8 -11.6,1 -14,16 -0.2,2.4 -1,5.4 -1.9,9 -4.9,24.6 -12,71.5 12.6,84.3 -8.5,8.5 -45.4,21.6 -59.9,4.1 -15.1,-17.6 -8.3,-60.3 -4.6,-86.1 6,-31.8 4.8,-64.1 -15.5,-69.3 44,-27.8 68.9,-10.1 70.3,11.9 7.5,-11 30.5,-25.7 48.9,-19.5 23.2,7.8 18.3,31.8 11.8,54.4 -6,23.3 -9,38.9 0.5,42.6 7.6,3.6 16.8,-5.4 16.4,-23.7 24.4,40.7 4.5,103.1 -38,93.9 z"
       id="path3680"
       inkscape:connector-curvature="0"
       style="fill:#f46430" /><g
       id="g3686"><path
         d="m 281.7,473.4 c -0.2,11.5 -2,18.7 -5.3,22.7 -3.3,4 -9.6,6 -19.9,5.8 -94.3,0.3 -94.3,0.3 -94.3,0.3 -10.3,-0.2 -16.9,-1.9 -20.3,-5.8 -3.4,-3.9 -4.6,-11.3 -5,-22.9 -0.2,-194.1 -0.2,-194.1 -0.2,-194.1 60.2,0.2 60.2,0.2 60.2,0.2 0.4,158.8 0.4,158.8 0.4,158.8 -0.6,7.9 -0.6,7.9 -0.6,7.9 1.4,5.6 5.4,8.9 12.7,8.9 2.5,-0.4 4.9,-0.9 7.5,-2.5 1.9,-1.1 3.3,-3.4 3.5,-6.4 0.8,-3 1.1,-6 0.7,-9.1 0.1,-157.6 0.1,-157.6 0.1,-157.6 59.7,-0.4 59.7,-0.4 59.7,-0.4 z m 77.1,-193.8 c 2,5.6 3.5,10 3.9,13.1 1,3.1 1.2,8.6 1.3,15.9 1.7,-6 3.2,-10.1 5.2,-13 1.4,-2.9 3.5,-5.8 6.1,-8.7 5.2,-5.1 12.1,-7.6 20,-7.6 24.9,0 24.9,0 24.9,0 10.9,0.2 18.1,2.6 20.7,7.6 3.2,5.7 5.3,10.1 5.7,13.2 0.9,3.7 1.1,9.2 1.2,17.1 0.3,184.4 0.3,184.4 0.3,184.4 -60.2,-0.2 -60.2,-0.2 -60.2,-0.2 C 387.7,348 387.7,348 387.7,348 c -0.4,-11 -4.3,-16.1 -12.2,-16.1 -7.9,0 -11.9,5.2 -11.6,16.8 0.2,152.7 0.2,152.7 0.2,152.7 -60.3,0.4 -60.3,0.4 -60.3,0.4 -0.4,-182.6 -0.4,-182.6 -0.4,-182.6 -0.1,-7.3 -0.2,-13.4 -1.1,-18.3 -0.9,-4.3 -2.8,-11.8 -5.7,-21.7 z m 111.3,-0.3 c 59.7,-0.4 59.7,-0.4 59.7,-0.4 0.3,86.4 0.3,86.4 0.3,86.4 3.6,0.3 3.6,0.3 3.6,0.3 6.1,-0.2 11.1,-1.6 14.4,-5.6 3.9,-3.4 5.5,-8.7 5.4,-14.8 -0.2,-37.7 -0.2,-37.7 -0.2,-37.7 0.2,-11.5 0.2,-11.5 0.2,-11.5 0.2,-2.4 0.4,-4.8 0.5,-6.7 0.8,-2.4 1.6,-5.4 3.2,-10.1 63.3,-0.2 63.3,-0.2 63.3,-0.2 -2.9,6.5 -4.5,11.8 -5.4,15.4 -0.8,3 -1.2,7.8 -1,13.3 -0.3,45 -0.3,45 -0.3,45 0.4,11.6 -2.7,19.9 -8.4,23.1 -5.2,3.9 -13.9,7.5 -25.8,12.1 10.8,2 19.1,5.1 26.7,9.3 7.6,3.6 11.2,13.6 11.1,30.6 0.3,45.1 0.3,45.1 0.3,45.1 0,8.5 0.2,14 0.6,16.5 0.4,3.1 1.9,6.8 4,11.9 -60.3,0.4 -60.3,0.4 -60.3,0.4 -2.2,-3.8 -3.7,-7 -4.2,-9.4 -0.4,-3.1 -0.7,-7.4 -0.8,-14.1 -0.5,-42.6 -0.5,-42.6 -0.5,-42.6 0.2,-10.9 -5.4,-16.8 -17,-16.5 -1.2,-0.1 -1.2,-0.1 -1.2,-0.1 -8.5,0 -8.5,0 -8.5,0 0.5,82.8 0.5,82.8 0.5,82.8 -60.2,-0.2 -60.2,-0.2 -60.2,-0.2 z m 168.6,-0.2 c 60.3,-0.4 60.3,-0.4 60.3,-0.4 0.5,222.7 0.5,222.7 0.5,222.7 -60.2,-0.2 -60.2,-0.2 -60.2,-0.2 z M 761,501.1 C 734.8,501 721.4,486 721.2,455.5 721,326 721,326 721,326 c -0.1,-15.2 2.5,-26 7.3,-32.9 4.7,-6.3 8.7,-10.9 12.5,-12.5 4.3,-0.9 10.5,-1.7 19,-2.2 80.9,-0.1 80.9,-0.1 80.9,-0.1 0,49.3 0,49.3 0,49.3 -59.6,-0.2 -59.6,-0.2 -59.6,-0.2 0.2,38.3 0.2,38.3 0.2,38.3 59.1,-0.5 59.1,-0.5 59.1,-0.5 0.5,50.5 0.5,50.5 0.5,50.5 -59.6,-0.2 -59.6,-0.2 -59.6,-0.2 -0.2,35.3 -0.2,35.3 -0.2,35.3 59.6,0.2 59.6,0.2 59.6,0.2 -0.1,49.9 -0.1,49.9 -0.1,49.9 z m 99.3,-51 c 56.6,-0.1 56.6,-0.1 56.6,-0.1 0.1,-34 0.1,-34 0.1,-34 -27.4,0.4 -27.4,0.4 -27.4,0.4 -10.3,-0.2 -18,-3.8 -22.4,-10.2 -5,-7.1 -7.2,-17.6 -7.3,-32.8 0,-48.7 0,-48.7 0,-48.7 0.4,-13.4 1,-21.8 2.6,-26.6 1.6,-4.8 4.3,-8.8 8.9,-12.7 4.5,-3.3 8.3,-5.5 12,-5.8 3.7,-0.9 9.8,-1.1 18.3,-1.1 75.5,-0.5 75.5,-0.5 75.5,-0.5 0,49.3 0,49.3 0,49.3 -57.2,0 -57.2,0 -57.2,0 0,32.3 0,32.3 0,32.3 30.4,-0.2 30.4,-0.2 30.4,-0.2 9.1,0.1 16.2,2.4 20.8,7 3.9,4.6 6.4,12 6.2,22.4 0,73.6 0,73.6 0,73.6 0.5,9.2 0.1,15.2 -0.8,18.8 -0.8,3 -2.9,6.5 -6.2,9.9 -3.3,4 -6.5,6.2 -10.3,7.8 -3.7,0.9 -8.7,1.8 -15.4,1.9 -84.6,-0.2 -84.6,-0.2 -84.6,-0.2 z"
         id="path3682"
         inkscape:connector-curvature="0"
         style="fill:#6fc3de" /><path
         d="m 52.2,281.9 1.6,160.2 c 0.1,17.4 -13.9,20.2 -30.6,16.7 L 0,512.1 c 10.7,2.7 23.5,4.3 39,4.2 42.3,-0.3 76.5,-13.8 76.3,-55.2 -0.1,-21.6 -1.7,-179.9 -1.7,-179.9 z"
         id="path3684"
         inkscape:connector-curvature="0"
         style="fill:#6fc3de" /></g></g><path
     style="fill:#c8ab37"
     d="M 1017.6875 138.8125 C 999.78913 138.8125 985.37891 153.22077 985.37891 171.11914 L 985.37891 399.82227 C 985.37891 417.72064 999.78913 432.13086 1017.6875 432.13086 L 1458.0898 432.13086 C 1475.9882 432.13086 1490.3984 417.72064 1490.3984 399.82227 L 1490.3984 171.11914 C 1490.3984 153.22077 1475.9882 138.8125 1458.0898 138.8125 L 1017.6875 138.8125 z M 1027.1484 148.16406 L 1449.4805 148.16406 C 1466.4969 148.16406 1480.1953 161.86248 1480.1953 178.87891 L 1480.1953 392.91211 C 1480.1953 409.92853 1466.4969 423.62891 1449.4805 423.62891 L 1027.1484 423.62891 C 1010.132 423.62891 996.43164 409.92853 996.43164 392.91211 L 996.43164 178.87891 C 996.43164 161.86248 1010.132 148.16406 1027.1484 148.16406 z "
     id="rect4834" /><text
     xml:space="preserve"
     style="font-style:normal;font-weight:normal;font-size:75.47613525px;line-height:47.17258072px;font-family:sans-serif;text-align:center;letter-spacing:0px;word-spacing:0px;text-anchor:middle;fill:#c8ab37;fill-opacity:1;stroke:none;stroke-width:1.88690341;"
     x="1532.3123"
     y="288.29266"
     id="text4848"
     transform="scale(0.80668098,1.2396474)"><tspan
       sodipodi:role="line"
       id="tspan4846"
       x="1532.3123"
       y="288.29266"
       style="font-style:normal;font-variant:normal;font-weight:bold;font-stretch:normal;font-size:181.14271545px;line-height:48.11603928px;font-family:Arial;-inkscape-font-specification:'Arial Bold';fill:#c8ab37;stroke-width:1.88690341;">MINUS</tspan></text>
</svg>